<?xml version="1.0" encoding="UTF-8" standalone="no"?>
<svg width="23px" height="23px" viewBox="0 0 23 23" version="1.1" xmlns="http://www.w3.org/2000/svg" xmlns:xlink="http://www.w3.org/1999/xlink">
    <!-- Generator: Sketch 3.8.3 (29802) - http://www.bohemiancoding.com/sketch -->
    <title>icon-get-help-dark</title>
    <desc>Created with Sketch.</desc>
    <defs>
        <path d="M3.83276367,-1.77635684e-15 C4.21465595,-1.77635684e-15 5.90132963,0.8888859 8,0.8888859 C9.68982819,0.8888859 11.878756,-1.77635684e-15 12.1898804,-1.77635684e-15 C14.4317232,0.7423477 15.7953985,8.0292028 15.7953985,8.0292028 C15.9083968,8.5652245 15.5553691,8.9997559 14.9991283,8.9997559 L1.00087166,8.9997559 C0.448105505,8.9997559 0.0795680746,8.5537373 0.184959531,8.0127348 C0.184959531,8.0127348 1.35160558,0.7423477 3.83276367,-1.77635684e-15 L3.83276367,-1.77635684e-15 Z" id="path-1"></path>
        <ellipse id="path-3" cx="5" cy="5.5" rx="5" ry="5.5"></ellipse>
        <path d="M0,2.9876709 L0,0.99485115 C0,0.44541003 0.4489202,0 1.007484,0 L13.992516,0 C14.5489341,0 15,0.44994876 15,1.0068455 L15,12.9931545 C15,13.5492199 14.5566468,14 13.9906311,14 L11,14 L6.9271534,15.6285025 C6.414022,15.8336749 5.9980469,15.5430816 5.9980469,14.994882 L5.9980469,12.0168457" id="path-5"></path>
    </defs>
    <g id="Page-1" stroke="none" stroke-width="1" fill="none" fill-rule="evenodd">
        <g id="icon-get-help-dark">
            <g id="icon_get-help-dark">
                <g id="Symbols">
                    <g id="icon_get-help">
                        <g id="Group">
                            <g id="person" transform="translate(0.000000, 2.000000)">
                                <g id="Rectangle-216-Clipped" transform="translate(0.000000, 12.000000)">
                                    <mask id="mask-2" fill="white">
                                        <use xlink:href="#path-1"></use>
                                    </mask>
                                    <g id="path-1"></g>
                                    <g id="Rectangle-216" mask="url(#mask-2)" stroke="#2E3D49" stroke-width="4">
                                        <path d="M3.83276367,-1.77635684e-15 C4.21465595,-1.77635684e-15 5.90132963,0.8888859 8,0.8888859 C9.68982819,0.8888859 11.878756,-1.77635684e-15 12.1898804,-1.77635684e-15 C14.4317232,0.7423477 15.7953985,8.0292028 15.7953985,8.0292028 C15.9083968,8.5652245 15.5553691,8.9997559 14.9991283,8.9997559 L1.00087166,8.9997559 C0.448105505,8.9997559 0.0795680746,8.5537373 0.184959531,8.0127348 C0.184959531,8.0127348 1.35160558,0.7423477 3.83276367,-1.77635684e-15 L3.83276367,-1.77635684e-15 Z" id="path-1"></path>
                                    </g>
                                </g>
                                <g id="Oval-116-Clipped" transform="translate(3.000000, 0.000000)">
                                    <mask id="mask-4" fill="white">
                                        <use xlink:href="#path-3"></use>
                                    </mask>
                                    <g id="path-3"></g>
                                    <g id="Oval-116" mask="url(#mask-4)" stroke="#2E3D49" stroke-width="4">
                                        <ellipse id="path-3" cx="5" cy="5.5" rx="5" ry="5.5"></ellipse>
                                    </g>
                                </g>
                            </g>
                            <rect id="fill" fill="#2E3D49" x="13" y="4" width="6" height="2"></rect>
                            <rect id="fill" fill="#2E3D49" x="15" y="8" width="4" height="2"></rect>
                            <g id="Rectangle-91-Clipped" transform="translate(8.000000, 0.000000)">
                                <mask id="mask-6" fill="white">
                                    <use xlink:href="#path-5"></use>
                                </mask>
                                <g id="path-5"></g>
                                <g id="Rectangle-91" mask="url(#mask-6)" stroke="#2E3D49" stroke-width="4">
                                    <path d="M0,2.9876709 L0,0.99485115 C0,0.44541003 0.4489202,0 1.007484,0 L13.992516,0 C14.5489341,0 15,0.44994876 15,1.0068455 L15,12.9931545 C15,13.5492199 14.5566468,14 13.9906311,14 L11,14 L6.9271534,15.6285025 C6.414022,15.8336749 5.9980469,15.5430816 5.9980469,14.994882 L5.9980469,12.0168457" id="path-5"></path>
                                </g>
                            </g>
                        </g>
                    </g>
                </g>
            </g>
        </g>
    </g>
</svg>