<?xml version="1.0" encoding="utf-8"?>
<!-- Generator: Adobe Illustrator 18.1.1, SVG Export Plug-In . SVG Version: 6.00 Build 0)  -->
<svg version="1.1" id="Layer_1" xmlns="http://www.w3.org/2000/svg" xmlns:xlink="http://www.w3.org/1999/xlink" x="0px" y="0px"
	 viewBox="-587 85 32 32" enable-background="new -587 85 32 32" xml:space="preserve">
<title>icon_forums</title>
<desc>Created with Sketch.</desc>
<g id="Symbols">
	<g id="icon_forums" transform="translate(-2.000000, -4.000000)">
		<g id="Shape">
			<path fill="#02B3E4" d="M-582.4,110.3c-0.5-0.3-0.6-0.9-0.5-1.5l0.8-4.9V95c0-1.1,0.9-2,1.9-2h12.6c1.1,0,1.9,0.9,1.9,2v3
				c0,0.6-0.4,1-1,1c-0.6,0-1-0.4-1-1v-3h-12.6v9.1l-0.7,4.1l4.3-2.2h2.2c0.6,0,1,0.4,1,1s-0.4,1-1,1h-1.7l-4.8,2.4
				c-0.2,0.2-0.5,0.2-0.8,0.2C-581.9,110.6-582.2,110.5-582.4,110.3z"/>
			<path fill="#02B3E4" d="M-557.2,116.4l-4.8-2.4h-8.5c-1.1,0-1.9-0.9-1.9-2v-10c0-1.1,0.9-2,1.9-2h12.6c1.1,0,1.9,0.9,1.9,2v7.9
				l0.8,4.9c0.1,0.6-0.1,1.2-0.5,1.5c-0.2,0.3-0.5,0.3-0.8,0.3C-556.7,116.6-556.9,116.5-557.2,116.4z M-570.5,112h9l4.3,2.2
				l-0.7-4.2v-8h-12.6V112z"/>
		</g>
	</g>
</g>
</svg>
