<?xml version="1.0" encoding="UTF-8" standalone="no"?>
<svg width="32px" height="32px" viewBox="0 0 32 32" version="1.1" xmlns="http://www.w3.org/2000/svg" xmlns:xlink="http://www.w3.org/1999/xlink">
    <!-- Generator: Sketch 3.7.2 (28276) - http://www.bohemiancoding.com/sketch -->
    <title>icon_stack-overflow</title>
    <desc>Created with Sketch.</desc>
    <defs></defs>
    <g id="Symbols" stroke="none" stroke-width="1" fill="none" fill-rule="evenodd">
        <g id="icon_stack-overflow">
            <g id="stack-overflow-logo">
                <g id="shape" transform="translate(5.000000, 3.000000)">
                    <polyline id="Fill-2" fill="#B6B5B1" points="16.887639 18.7498395 16.887639 12 19 12 19 21 0 21 0 12 2.11236098 12 2.11236098 18.7498395 16.887639 18.7498395"></polyline>
                    <path d="M4,20 L14.7161217,20 L14.7161217,17.8280132 L4,17.8280132 L4,20 Z M13.604402,0 L11.8847521,1.29625231 L18.28035,10.0104303 L20,8.71417802 L13.604402,0 L13.604402,0 Z M8.28873123,5.13750478 L16.5232012,12.0876148 L17.8947637,10.4185557 L9.66029372,3.46844567 L8.28873123,5.13750478 L8.28873123,5.13750478 Z M5.60042798,9.96746977 L15.3148811,14.5524769 L16.2197455,12.5835201 L6.50529239,7.99830636 L5.60042798,9.96746977 L5.60042798,9.96746977 Z M4.21296921,15.0564374 L14.7000217,17.29018 L15.1408374,15.1644584 L4.65378492,12.9307158 L4.21296921,15.0564374 L4.21296921,15.0564374 Z" id="Fill-3" fill="#E6772C"></path>
                </g>
            </g>
        </g>
    </g>
</svg>